<mxfile host="app.diagrams.net" modified="2024-06-19T17:58:13.869Z" agent="Mozilla/5.0 (Windows NT 10.0; Win64; x64) AppleWebKit/537.36 (KHTML, like Gecko) Chrome/125.0.0.0 Safari/537.36" etag="zHll1Ts48MWF8RBtE76I" version="24.1.0" type="device">
  <diagram id="prtHgNgQTEPvFCAcTncT" name="Page-1">
    <mxGraphModel dx="1033" dy="493" grid="1" gridSize="10" guides="1" tooltips="1" connect="1" arrows="1" fold="1" page="1" pageScale="1" pageWidth="827" pageHeight="1169" math="0" shadow="0">
      <root>
        <mxCell id="0" />
        <mxCell id="1" parent="0" />
        <mxCell id="OSwe9K-VuPPDNi9t2dnI-4" value="" style="rounded=0;whiteSpace=wrap;html=1;fillColor=#FFFFCC;" vertex="1" parent="1">
          <mxGeometry x="290" y="80" width="200" height="110" as="geometry" />
        </mxCell>
        <mxCell id="OSwe9K-VuPPDNi9t2dnI-5" value="" style="rounded=0;whiteSpace=wrap;html=1;fillColor=#FFFFCC;" vertex="1" parent="1">
          <mxGeometry x="160" y="250" width="460" height="240" as="geometry" />
        </mxCell>
        <mxCell id="OSwe9K-VuPPDNi9t2dnI-16" style="edgeStyle=orthogonalEdgeStyle;rounded=0;orthogonalLoop=1;jettySize=auto;html=1;" edge="1" parent="1" source="OSwe9K-VuPPDNi9t2dnI-10" target="OSwe9K-VuPPDNi9t2dnI-15">
          <mxGeometry relative="1" as="geometry" />
        </mxCell>
        <mxCell id="OSwe9K-VuPPDNi9t2dnI-10" value="Controller控制器" style="rounded=1;whiteSpace=wrap;html=1;" vertex="1" parent="1">
          <mxGeometry x="330" y="270" width="120" height="60" as="geometry" />
        </mxCell>
        <mxCell id="OSwe9K-VuPPDNi9t2dnI-14" style="edgeStyle=orthogonalEdgeStyle;rounded=0;orthogonalLoop=1;jettySize=auto;html=1;" edge="1" parent="1" source="OSwe9K-VuPPDNi9t2dnI-13" target="OSwe9K-VuPPDNi9t2dnI-10">
          <mxGeometry relative="1" as="geometry" />
        </mxCell>
        <mxCell id="OSwe9K-VuPPDNi9t2dnI-13" value="Vue.js" style="rounded=1;whiteSpace=wrap;html=1;" vertex="1" parent="1">
          <mxGeometry x="340" y="120" width="100" height="50" as="geometry" />
        </mxCell>
        <mxCell id="OSwe9K-VuPPDNi9t2dnI-15" value="Service服务" style="rounded=1;whiteSpace=wrap;html=1;" vertex="1" parent="1">
          <mxGeometry x="330" y="390" width="120" height="60" as="geometry" />
        </mxCell>
      </root>
    </mxGraphModel>
  </diagram>
</mxfile>
